#!OML:ASF E:\emotionWalksFemale\Project 1\Capture day 1\Session 1\Female1.ASF
:FULLY-SPECIFIED
:DEGREES
402
root 9.76036 15.6325 11.0541 359.97 -73.3986 0.103092
lowerback 8.6243 1.24395 0.572932
upperback -4.171 1.6603 -0.75746
thorax -9.24392 0.736038 -1.40036
lowerneck -4.55112 -8.07785 -12.2368
upperneck 7.20452 -10.8141 9.95463
head 4.10129 -5.31119 4.39421
rclavicle 3.97197e-014 1.07344e-014
rhumerus -52.1848 15.6377 -93.9753
rradius 45.7072
rwrist 22.6695
rhand -1.69317 -64.7096
rfingers 7.12502
rthumb 23.9677 453.234
lclavicle 3.97197e-014 1.07344e-014
lhumerus -32.4125 -1.05906 79.0557
lradius 53.2342
lwrist 2.35261
lhand -4.32644 -35.2613
lfingers 7.12502
lthumb 21.4405 -6.42773
rfemur 4.11151 15.5238 29.532
rtibia 7.35796
rfoot -18.9124 -29.5975
rtoes 16.2729
lfemur -9.84859 -26.2234 -20.4889
ltibia 24.4364
lfoot -17.7978 14.6966
ltoes -29.1391
403
root 9.74803 15.6386 11.0727 359.911 -73.9832 0.18418
lowerback 8.36326 1.17569 0.706169
upperback -4.21245 1.5787 -0.804956
thorax -9.13265 0.6873 -1.50584
lowerneck -4.61966 -7.83364 -11.9727
upperneck 7.32598 -10.496 9.85545
head 4.09387 -5.15046 4.3454
rclavicle 2.65626e-014 8.54774e-015
rhumerus -52.3358 15.9394 -94.099
rradius 46.235
rwrist 22.1056
rhand -2.03765 -64.2165
rfingers 7.12502
rthumb 23.6373 452.783
lclavicle 2.65626e-014 8.54774e-015
lhumerus -32.1251 -0.481392 78.4837
lradius 53.4691
lwrist 2.5979
lhand -4.51637 -35.4035
lfingers 7.12502
lthumb 21.258 -6.54925
rfemur 4.24188 15.9942 29.4574
rtibia 7.15994
rfoot -18.3916 -29.7677
rtoes 15.3872
lfemur -9.63201 -26.5921 -20.6165
ltibia 24.4742
lfoot -18.4386 14.9397
ltoes -25.0162
404
root 9.74143 15.6363 11.0853 359.719 -74.3857 0.285653
lowerback 8.26011 1.11805 0.892633
upperback -4.17611 1.51739 -0.876854
thorax -9.02748 0.645183 -1.67371
lowerneck -4.65695 -7.66759 -11.931
upperneck 7.3345 -10.281 9.95185
head 4.08163 -5.03918 4.38523
rclavicle 4.50247e-014 1.2921e-014
rhumerus -52.4663 16.1763 -94.17
rradius 46.8813
rwrist 21.7333
rhand -2.45124 -63.6184
rfingers 7.12502
rthumb 23.2405 452.236
lclavicle 4.50247e-014 1.2921e-014
lhumerus -31.9152 5.21934 77.5222
lradius 54.008
lwrist -2.10704
lhand -2.68621 -36.7323
lfingers 7.12502
lthumb 23.0151 -8.08644
rfemur 4.35164 16.2774 29.4484
rtibia 7.19454
rfoot -18.0809 -29.8796
rtoes 15.0555
lfemur -9.3467 -26.7035 -20.7978
ltibia 24.4089
lfoot -18.5677 15.4543
ltoes -24.8942
405
root 9.73302 15.6332 11.0926 359.519 -74.8733 0.365642
lowerback 8.16554 1.09402 0.922727
upperback -4.11179 1.48332 -0.937272
thorax -8.90061 0.626785 -1.74556
lowerneck -4.73248 -7.51217 -11.8495
upperneck 7.37382 -10.0896 10.1178
head 4.0891 -4.93494 4.43665
rclavicle 6.43565e-015 -3.18055e-015
rhumerus -52.4007 16.1749 -94.1743
rradius 47.3374
rwrist 21.7247
rhand -2.55335 -63.0907
rfingers 7.12502
rthumb 23.1426 451.721
lclavicle 6.43565e-015 -3.18055e-015
lhumerus -31.2131 -0.793531 77.5079
lradius 53.6795
lwrist 3.82424
lhand -4.8449 -35.3286
lfingers 7.12502
lthumb 20.9424 -6.43913
rfemur 4.29782 16.6332 29.4567
rtibia 7.54748
rfoot -17.817 -29.9951
rtoes 14.6753
lfemur -8.99045 -26.6394 -20.9682
ltibia 24.2952
lfoot -18.4435 16.0216
ltoes -25.8647
406
root 9.72173 15.6306 11.1009 359.251 -75.4933 0.559391
lowerback 8.03867 1.08977 0.803498
upperback -4.09757 1.4617 -0.944041
thorax -8.81396 0.624055 -1.67856
lowerneck -4.8284 -7.33055 -11.7538
upperneck 7.52943 -9.86548 10.2291
head 4.12765 -4.81591 4.46971
rclavicle 2.7805e-014 2.5842e-015
rhumerus -52.3063 16.1706 -94.1187
rradius 47.6089
rwrist 21.7887
rhand -2.36903 -62.7081
rfingers 7.12502
rthumb 23.3194 451.316
lclavicle 2.7805e-014 2.5842e-015
lhumerus -30.8721 0.396873 76.7278
lradius 53.5989
lwrist 3.36193
lhand -4.51655 -35.8194
lfingers 7.12502
lthumb 21.2579 -6.96513
rfemur 4.13014 17.1313 29.3519
rtibia 7.94912
rfoot -17.388 -30.1905
rtoes 13.5978
lfemur -8.68368 -26.185 -21.1859
ltibia 24.1672
lfoot -17.9081 16.9219
ltoes -29.898
407
root 9.7154 15.6251 11.1113 359.027 -76.0605 0.737473
lowerback 7.95748 1.04829 0.705773
upperback -4.12353 1.39721 -0.89826
thorax -8.79994 0.59977 -1.56347
lowerneck -4.957 -7.12986 -11.6368
upperneck 7.777 -9.60247 10.1682
head 4.18541 -4.68262 4.4471
rclavicle -8.89561e-015 1.09332e-014
rhumerus -52.246 16.2053 -93.9236
rradius 47.846
rwrist 21.8549
rhand -2.18304 -62.141
rfingers 7.12502
rthumb 23.4978 450.726
lclavicle -8.89561e-015 1.09332e-014
lhumerus -30.8245 0.779239 76.1943
lradius 53.8687
lwrist 3.77888
lhand -4.55914 -35.6843
lfingers 7.12502
lthumb 21.2169 -6.82547
rfemur 4.08961 17.578 29.3401
rtibia 8.24653
rfoot -17.4881 -30.0684
rtoes 14.2578
lfemur -8.48137 -25.7287 -21.3643
ltibia 24.0713
lfoot -17.5864 17.5389
ltoes -32.3819
